<mxfile host="app.diagrams.net" modified="2024-04-27T07:37:33.151Z" agent="Mozilla/5.0 (Macintosh; Intel Mac OS X 10_15_7) AppleWebKit/537.36 (KHTML, like Gecko) Chrome/124.0.0.0 Safari/537.36" etag="nO5gwGi_k68Sq0TSwqOl" version="24.2.8" type="github" pages="3">
  <diagram name="QCE-Methodology" id="ciLwFc6_xf-5Hv-enScU">
    <mxGraphModel dx="762" dy="492" grid="1" gridSize="10" guides="1" tooltips="1" connect="1" arrows="1" fold="1" page="1" pageScale="1" pageWidth="1169" pageHeight="827" math="0" shadow="0">
      <root>
        <mxCell id="0" />
        <mxCell id="1" parent="0" />
        <mxCell id="vqSa0VOfY4HYo12dXOzq-1" value="" style="rounded=0;whiteSpace=wrap;html=1;" vertex="1" parent="1">
          <mxGeometry x="80" y="80" width="160" height="200" as="geometry" />
        </mxCell>
        <mxCell id="vqSa0VOfY4HYo12dXOzq-2" value="" style="rounded=0;whiteSpace=wrap;html=1;" vertex="1" parent="1">
          <mxGeometry x="280" y="80" width="200" height="240" as="geometry" />
        </mxCell>
        <mxCell id="vqSa0VOfY4HYo12dXOzq-3" value="" style="rounded=0;whiteSpace=wrap;html=1;" vertex="1" parent="1">
          <mxGeometry x="840" y="80" width="160" height="240" as="geometry" />
        </mxCell>
        <mxCell id="vqSa0VOfY4HYo12dXOzq-4" value="State-of-the-art QNN Algorithms" style="text;html=1;align=center;verticalAlign=middle;whiteSpace=wrap;rounded=0;" vertex="1" parent="1">
          <mxGeometry x="90" y="83" width="140" height="30" as="geometry" />
        </mxCell>
        <mxCell id="vqSa0VOfY4HYo12dXOzq-5" value="Quanvolutional Neural Network" style="rounded=1;whiteSpace=wrap;html=1;" vertex="1" parent="1">
          <mxGeometry x="100" y="120" width="120" height="40" as="geometry" />
        </mxCell>
        <mxCell id="vqSa0VOfY4HYo12dXOzq-6" value="Quantum Convolutional Neural Network" style="rounded=1;whiteSpace=wrap;html=1;" vertex="1" parent="1">
          <mxGeometry x="100" y="170" width="120" height="40" as="geometry" />
        </mxCell>
        <mxCell id="vqSa0VOfY4HYo12dXOzq-7" value="Quantum Transfer Learning" style="rounded=1;whiteSpace=wrap;html=1;" vertex="1" parent="1">
          <mxGeometry x="100" y="220" width="120" height="40" as="geometry" />
        </mxCell>
        <mxCell id="vqSa0VOfY4HYo12dXOzq-8" value="" style="rounded=0;whiteSpace=wrap;html=1;" vertex="1" parent="1">
          <mxGeometry x="480" y="80" width="280" height="240" as="geometry" />
        </mxCell>
        <mxCell id="vqSa0VOfY4HYo12dXOzq-9" value="Model Shortlisting" style="text;html=1;align=center;verticalAlign=middle;whiteSpace=wrap;rounded=0;" vertex="1" parent="1">
          <mxGeometry x="290" y="83" width="180" height="30" as="geometry" />
        </mxCell>
        <mxCell id="vqSa0VOfY4HYo12dXOzq-10" value="Noise Analysis" style="text;html=1;align=center;verticalAlign=middle;whiteSpace=wrap;rounded=0;" vertex="1" parent="1">
          <mxGeometry x="540" y="80" width="180" height="30" as="geometry" />
        </mxCell>
      </root>
    </mxGraphModel>
  </diagram>
  <diagram id="UL-P-K5Sw1AcmyPK3u9S" name="Capstone-Methodology">
    <mxGraphModel dx="954" dy="606" grid="1" gridSize="10" guides="1" tooltips="1" connect="1" arrows="1" fold="1" page="1" pageScale="1" pageWidth="827" pageHeight="1169" math="0" shadow="0">
      <root>
        <mxCell id="0" />
        <mxCell id="1" parent="0" />
      </root>
    </mxGraphModel>
  </diagram>
  <diagram id="SuCf60ZqhbGZs732jb4X" name="QCE-Others">
    <mxGraphModel dx="954" dy="606" grid="1" gridSize="10" guides="1" tooltips="1" connect="1" arrows="1" fold="1" page="1" pageScale="1" pageWidth="827" pageHeight="1169" math="0" shadow="0">
      <root>
        <mxCell id="0" />
        <mxCell id="1" parent="0" />
      </root>
    </mxGraphModel>
  </diagram>
</mxfile>
